<svg width="170" height="132" viewBox="0 0 170 132" fill="none" xmlns="http://www.w3.org/2000/svg">
<g clip-path="url(#clip0_3528_730)">
<mask id="mask0_3528_730" style="mask-type:luminance" maskUnits="userSpaceOnUse" x="0" y="0" width="170" height="132">
<path d="M169.239 131.311L0.00878906 131.322L0.000120569 0.0110168L169.23 -0.000154848L169.239 131.311Z" fill="white"/>
</mask>
<g mask="url(#mask0_3528_730)">
<path d="M6.89585 78.7591C6.60398 77.7185 6.46569 76.6617 6.47586 75.6056C6.52166 71.2843 8.45653 67.8146 11.958 65.7072C12.9407 63.0998 14.8551 59.7169 18.5921 56.4972C18.9094 55.6196 19.2728 54.0787 18.8324 53.1399C18.0491 51.4817 16.3184 45.9407 18.5758 42.3946C19.6354 40.7312 21.3708 39.8127 23.4697 39.8125C24.4065 39.8125 25.3946 39.991 26.4901 40.3532C32.1881 42.2457 33.2738 48.9908 33.3612 53.2511C34.0318 53.1644 34.769 53.0572 35.5266 52.9143C35.6648 51.9245 35.8438 50.9397 36.0639 49.9652C34.2618 48.1693 32.7259 46.1285 31.492 43.8887C27.7749 37.1489 27.114 29.271 29.6322 21.7145C32.1248 14.2344 37.4383 7.95319 44.6 4.03422C49.4017 1.40625 54.777 0.0129856 60.1369 0.0126323C70.8212 0.0119279 80.4972 5.51661 85.3816 14.3789C86.6155 16.6187 87.5215 19.0014 88.0743 21.481C96.1477 24.3632 102.747 29.8987 106.782 37.2202C110.734 44.3886 111.922 52.797 110.157 61.0117C110.208 61.1035 110.254 61.175 110.29 61.226C110.53 61.2158 111.022 61.1545 111.872 60.8483C115.333 59.6185 118.905 58.0468 122.51 56.1587C122.443 54.7046 122.555 52.9953 123.164 51.587C123.702 50.3522 124.403 49.3113 125.263 48.4847C125.719 46.357 127.122 43.7293 130.792 41.3718C131.063 41.132 131.933 40.2492 131.718 39.0196C131.662 38.7951 131.37 38.1319 131.155 37.6471C130.121 35.3002 128.702 32.0859 129.9 29.2592C130.315 28.2846 131.216 26.9784 133.171 26.2538C133.99 25.9476 134.845 25.7944 135.71 25.7944C137.865 25.7942 139.99 26.7635 141.69 28.5237C143.39 30.2839 144.557 32.6971 145.094 35.4523C148.079 34.0745 151.703 32.1762 154.662 29.9463C156.72 28.4002 158.967 27.5837 161.174 27.5836C163.585 27.5834 165.843 28.5782 167.374 30.3129C168.808 31.9404 169.468 34.0782 169.191 36.1803C168.465 41.7061 161.82 44.0433 157.622 44.9773C157.683 45.2682 157.75 45.5743 157.812 45.8957C157.981 46.6049 158.073 47.2172 158.119 47.6305C158.693 51.3143 158.739 54.6766 158.247 57.6257C158.186 58.1462 158.089 58.6768 157.961 59.2075L157.536 60.7994L157.439 60.83C155.827 65.4885 152.52 68.647 147.805 70.0096C145.557 70.6578 143.449 70.9894 141.549 70.9895C140.198 70.9896 138.918 70.8268 137.736 70.4947C136.476 71.0102 135.217 71.2708 133.978 71.2709C132.36 71.271 130.799 70.8168 129.381 69.9496C125.234 72.1029 121.092 73.9149 117.053 75.3483C114.693 76.1855 112.39 76.614 110.204 76.6141C108.018 76.6143 105.745 76.1453 103.779 75.2474C101.951 77.7782 99.8323 80.0844 97.4316 82.1413C98.4302 83.3146 99.2181 84.6003 99.7814 85.9829C101.676 90.6004 101.006 95.5544 97.786 100.724C98.4927 104.045 97.4894 106.963 94.9813 108.974L95.2222 109.979C98.6266 112.239 100.424 117.05 99.4769 121.893C98.5861 126.444 95.0438 131.312 87.7698 131.317L87.7543 131.317C83.6078 131.317 80.1368 129.945 77.4282 127.241C72.9078 122.721 72.0009 115.746 71.8216 112.996C71.0793 112.103 70.4543 111.139 69.9477 110.129C67.3318 111.23 64.4394 111.808 61.4293 111.808C60.6255 111.808 59.8167 111.767 59.0129 111.69C57.6461 112.66 56.0386 113.181 54.3442 113.196C55.0099 116.425 54.5751 121.054 49.8859 124.079C47.8895 125.371 45.2838 126.08 42.55 126.08C38.4443 126.08 34.6918 124.575 32.2497 121.958C30.1404 119.698 29.1572 116.759 29.3976 113.468C30.0165 105.08 35.8113 100.176 38.2684 98.4566C40.4949 91.3544 46.3769 89.359 49.3103 89.3125L50.4468 89.2977L55.4486 93.7921C56.0579 93.8686 56.6722 94.0167 57.2814 94.2309C58.4589 94.6493 59.5084 95.3683 60.3685 96.3429C60.6654 96.3738 61.0135 96.4039 61.4026 96.4039C62.365 96.4038 63.7319 96.2408 64.8069 95.4648C65.7642 94.7759 66.5525 93.5667 67.136 91.8982C58.858 91.0976 51.2145 87.6643 45.4805 82.1496C45.1836 82.3736 44.8765 82.6089 44.5693 82.8434C42.9671 85.1805 40.6994 86.2115 39.4759 86.6195C38.3548 87.4355 37.249 88.227 36.1791 88.9819C19.9516 100.427 13.8955 101.968 10.1123 101.969C9.35465 101.969 8.62772 101.898 7.88029 101.755C4.97758 101.194 2.62257 99.4996 1.24018 96.9949C-2.0161 91.0812 1.68991 85.2036 6.87538 78.7641L6.89585 78.7591ZM84.3011 91.2342C84.0089 91.0959 83.6613 90.9485 83.2569 90.7954C83.2056 91.1114 83.1544 91.4281 83.0982 91.7392C83.4823 91.5404 83.8868 91.3719 84.2961 91.2342L84.3011 91.2342Z" fill="white"/>
<path d="M55.1882 97.4245L49.3723 92.2005C49.3723 92.2005 42.7018 92.2979 40.7928 100.278C40.7928 100.278 32.9758 104.651 32.311 113.677C31.646 122.703 42.8934 125.166 48.3248 121.651C53.7561 118.14 50.9913 112.125 50.9913 112.125L55.1831 97.4245L55.1882 97.4245Z" fill="white"/>
<path d="M42.5759 123.948C44.8335 123.947 47.0399 123.396 48.7446 122.294C53.9712 118.916 52.2916 113.385 51.8053 112.089L55.9254 97.6395C56.0073 97.3586 55.9202 97.0574 55.7001 96.8636L49.8841 91.6396C49.7408 91.5118 49.5616 91.4402 49.3568 91.4402C49.2852 91.4402 42.2461 91.6401 40.1221 99.7886C38.6325 100.712 32.1619 105.193 31.543 113.621C31.2719 117.32 32.8591 120.387 36.0179 122.249C37.9377 123.381 40.2824 123.948 42.5707 123.953L42.5759 123.948ZM54.3179 97.6754L50.2541 111.916C50.2029 112.089 50.2183 112.278 50.2951 112.446C50.3975 112.666 52.7067 117.906 47.9049 121.008C44.9665 122.906 40.0878 122.871 36.7959 120.927C34.9376 119.83 32.777 117.687 33.0686 113.728C33.6977 105.238 41.0898 100.982 41.1614 100.942C41.3457 100.834 41.4839 100.661 41.5299 100.451C43.0602 94.0479 47.8724 93.1193 49.0907 92.9865L54.3077 97.6754L54.3179 97.6754Z" fill="black"/>
<path d="M43.4961 109.508C45.5285 108.993 48.6718 108.905 50.991 112.125L43.4961 109.508Z" fill="white"/>
<path d="M50.9968 112.895C51.1504 112.895 51.3091 112.85 51.4422 112.753C51.7852 112.508 51.867 112.028 51.6162 111.686C49.6399 108.946 46.686 107.911 43.3073 108.773C42.8977 108.881 42.647 109.294 42.7545 109.702C42.862 110.11 43.2767 110.36 43.6913 110.253C45.6213 109.763 48.3448 109.763 50.3722 112.579C50.5207 112.789 50.7562 112.895 50.9968 112.895Z" fill="black"/>
<path d="M49.1834 94.1954C49.1834 94.1954 43.7672 94.7266 42.9946 101.395L49.1834 94.1954Z" fill="white"/>
<path d="M42.9994 102.166C43.3834 102.166 43.7161 101.88 43.7622 101.488C44.4477 95.5434 49.0705 94.9813 49.265 94.961C49.6848 94.9153 49.992 94.5424 49.9459 94.119C49.9048 93.7005 49.526 93.3951 49.1113 93.4358C49.0499 93.4407 43.0706 94.1096 42.2366 101.309C42.1905 101.727 42.4926 102.11 42.9124 102.155C42.9431 102.155 42.9738 102.155 42.9994 102.155L42.9994 102.166Z" fill="black"/>
<path d="M41.5549 102.462C41.5549 102.462 31.6391 108.657 35.167 118.198L41.5549 102.462Z" fill="white"/>
<path d="M35.173 118.963C35.26 118.963 35.3522 118.947 35.4392 118.917C35.8385 118.769 36.0432 118.33 35.8948 117.932C32.6229 109.08 41.8732 103.171 41.9705 103.11C42.3288 102.885 42.4363 102.41 42.211 102.053C41.9857 101.696 41.5147 101.589 41.1513 101.813C41.0489 101.88 30.7543 108.453 34.4511 118.463C34.5638 118.774 34.8607 118.963 35.173 118.963Z" fill="black"/>
<path d="M56.3353 96.9506C51.6971 95.3077 48.375 99.9867 48.406 104.62C48.437 109.252 53.9507 111.905 57.4777 109.231C61.1994 106.414 60.6254 98.4656 56.3353 96.9457L56.3353 96.9506Z" fill="white"/>
<path d="M54.2624 111.069C55.5832 111.069 56.8732 110.656 57.9431 109.849C60.3491 108.022 61.0042 104.512 60.5893 101.838C60.1539 99.0627 58.6589 96.971 56.5907 96.2366C54.6504 95.5479 52.7768 95.7874 51.1694 96.9307C49.004 98.4666 47.6169 101.487 47.6375 104.635C47.6531 107.074 49.0661 109.273 51.3289 110.38C52.2761 110.844 53.2795 111.074 54.2675 111.074L54.2624 111.069ZM54.4612 97.3792C54.9833 97.3792 55.5209 97.476 56.0738 97.6754C57.6045 98.216 58.7257 99.8584 59.0689 102.073C59.4837 104.746 58.6596 107.38 57.0113 108.63C55.6138 109.691 53.6941 109.834 52.0046 109.002C50.2435 108.14 49.1837 106.503 49.1734 104.62C49.1578 101.997 50.3146 99.4102 52.0551 98.1757C52.8025 97.6448 53.6062 97.3793 54.4612 97.3792Z" fill="black"/>
<path d="M61.4446 108.915C58.5828 108.915 56.4737 108.339 56.0385 108.211C56.0385 108.211 51.0983 107.426 52.2908 102.655C53.5549 97.599 58.7818 98.9968 58.7818 98.9968L58.7409 98.9862C58.7869 98.9968 63.2306 100.185 66.5273 97.8074C70.0032 95.3018 70.986 89.7094 71.195 85.454C71.3283 82.8011 73.5962 80.7653 76.2477 80.8922C78.9098 81.0248 80.9575 83.2801 80.825 85.9281C80.3594 95.2498 77.4063 101.898 72.0411 105.684C68.4068 108.251 64.4957 108.91 61.4394 108.91L61.4446 108.915Z" fill="#12B4FF"/>
<path d="M61.4442 109.68C65.5499 109.68 69.3689 108.516 72.4866 106.312C78.0505 102.383 81.1166 95.5401 81.592 85.9684C81.6692 84.484 81.1572 83.055 80.1537 81.9533C79.1501 80.8509 77.778 80.2029 76.2886 80.1265C73.2221 79.9792 70.5806 82.3465 70.427 85.413C70.2225 89.4998 69.3014 94.852 66.0764 97.1793C63.1073 99.317 58.9862 98.2514 58.9452 98.2408C58.9196 98.2359 58.8992 98.231 58.8735 98.2254C58.3411 98.1032 56.0425 97.68 54.0768 98.8331C52.8123 99.5726 51.9626 100.797 51.5429 102.461C51.1386 104.073 51.3179 105.466 52.0756 106.609C53.2634 108.4 55.475 108.879 55.8641 108.951C56.376 109.098 58.5569 109.675 61.4442 109.675L61.4442 109.68ZM76.017 81.6524C76.0837 81.6524 76.1504 81.6524 76.2171 81.6524C77.2971 81.7035 78.295 82.1775 79.0225 82.9737C79.7493 83.7749 80.118 84.805 80.0668 85.8871C79.6117 94.9637 76.7661 101.414 71.6059 105.057C68.7084 107.103 65.2887 108.139 61.4492 108.139C58.6848 108.139 56.6421 107.578 56.2633 107.466C56.2325 107.456 56.1967 107.45 56.166 107.445C56.1507 107.445 54.2565 107.114 53.3605 105.752C52.8587 104.987 52.7512 104.001 53.0429 102.828C53.3551 101.573 53.9694 100.675 54.8652 100.144C56.5033 99.1798 58.5716 99.7155 58.5921 99.7204C58.6126 99.7253 58.6331 99.7309 58.6535 99.7358C59.3958 99.9141 63.6757 100.797 66.9877 98.4138C70.7093 95.7297 71.7531 89.8979 71.9733 85.4796C72.0806 83.321 73.8774 81.642 76.0219 81.6418L76.017 81.6524Z" fill="black"/>
<path d="M110.214 73.7267C107.127 73.7269 104.833 72.7166 103.272 71.6452C96.9542 67.3191 96.5491 58.1045 96.5237 57.0687L101.346 56.9511L106.164 56.813C106.235 58.9457 107.106 62.6193 108.739 63.7264C109.578 64.2978 110.961 64.2466 112.85 63.573C124.787 59.3323 134.187 52.4845 134.279 52.413L139.997 60.1527C139.567 60.4691 129.349 67.9139 116.086 72.6295C113.879 73.4154 111.923 73.7266 110.214 73.7267Z" fill="black"/>
<path d="M10.1327 99.0759C9.51321 99.0759 8.96036 99.0148 8.45351 98.9131C6.41599 98.52 4.76236 97.3418 3.79981 95.5969C0.860954 90.2604 5.64205 84.6116 14.3289 74.361C15.0507 73.5085 15.798 72.6257 16.5608 71.7227L23.9484 77.9008C23.1805 78.8144 22.428 79.6972 21.7012 80.5595C20.0221 82.5391 18.1691 84.728 16.5719 86.723C23.2525 83.0031 33.8644 75.7163 45.3516 66.3634L51.4492 73.8073C51.1216 74.0728 43.3611 80.3797 34.5204 86.6151C20.0077 96.8506 13.8186 99.0707 10.1276 99.0709L10.1327 99.0759Z" fill="black"/>
<path d="M41.9068 72.7515C50.6824 88.6697 71.7542 93.9341 88.9645 84.5088C106.18 75.0841 113.018 54.5367 104.243 38.6132C100.141 31.1795 93.3634 26.0675 85.5457 23.6904C85.1256 20.9709 84.235 18.2974 82.8424 15.7668C75.9713 3.30756 59.4766 -0.808859 45.9979 6.56987C32.5192 13.9486 27.1654 30.0363 34.0364 42.5006C35.429 45.0261 37.2158 47.2098 39.2944 49.026C37.1141 56.8786 37.8057 65.3227 41.9068 72.7564L41.9068 72.7515Z" fill="#12B4FF"/>
<path d="M70.9349 89.9437C77.1037 89.9433 83.4466 88.4072 89.3385 85.1823C106.897 75.5687 113.884 54.5163 104.919 38.251C100.951 31.052 94.3258 25.69 86.2272 23.1088C85.7559 20.4046 84.8442 17.8178 83.5134 15.4096C80.0884 9.19539 74.2514 4.78231 67.0846 2.99189C59.9378 1.20658 52.3152 2.23774 45.6296 5.90159C38.9439 9.56543 33.9786 15.418 31.66 22.3879C29.3312 29.3781 29.9358 36.6538 33.3661 42.8681C34.6922 45.2763 36.397 47.4344 38.4347 49.2813C36.28 57.4757 37.2686 65.9249 41.2365 73.1238C47.1961 83.9302 58.7202 89.9445 70.9349 89.9437ZM60.1223 3.66585C62.3389 3.6657 64.5505 3.93087 66.7161 4.47156C73.4636 6.15996 78.9565 10.3026 82.1723 16.1394C83.4933 18.5322 84.374 21.1139 84.7885 23.8078C84.8348 24.0987 85.0392 24.3385 85.3208 24.4252C93.241 26.8329 99.722 32.0011 103.573 38.9858C112.133 54.5113 105.413 74.63 88.5962 83.8404C71.7799 93.046 51.1382 87.9093 42.5777 72.3843C38.7275 65.4044 37.826 57.1796 40.037 49.2251C40.1137 48.9393 40.0267 48.6383 39.8014 48.4445C37.7434 46.6486 36.0283 44.5211 34.7124 42.1282C31.4919 36.2915 30.9284 29.4494 33.119 22.8674C35.3148 16.2649 40.0242 10.7134 46.3719 7.23834C50.6874 4.8757 55.4125 3.66106 60.1223 3.66075L60.1223 3.66585Z" fill="black"/>
<path d="M131.934 49.265C131.934 49.265 127.833 48.153 125.837 52.74C123.841 57.327 128.741 74.2053 139.23 66.3111C149.719 58.4173 149.467 42.3146 149.467 42.3146L139.807 39.8457L131.934 49.265Z" fill="white"/>
<path d="M133.994 69.1582C135.606 69.1581 137.51 68.5661 139.691 66.923C150.37 58.8864 150.246 42.9776 150.235 42.3041C150.23 41.9571 149.995 41.6612 149.656 41.5745L139.996 39.1056C139.71 39.0342 139.408 39.1312 139.213 39.3557L131.632 48.4229C129.851 48.1577 126.748 48.7038 125.126 52.4337C123.713 55.6788 125.3 64.1229 129.77 67.6279C130.814 68.4492 132.227 69.1532 133.988 69.1531L133.994 69.1582ZM148.695 42.9113C148.608 45.8247 147.717 58.9681 138.77 65.7037C135.734 67.9897 133.026 68.2348 130.727 66.4287C126.954 63.4697 125.336 55.8113 126.539 53.0458C128.233 49.1476 131.596 49.9688 131.735 50.0046C132.021 50.0811 132.334 49.9841 132.523 49.7545L140.083 40.7077L148.69 42.9062L148.695 42.9113Z" fill="black"/>
<path d="M129.866 55.0358C129.866 55.0358 124.204 48.9441 132.507 43.7188C132.507 43.7188 135.153 41.7542 134.574 38.4735C134.241 36.5858 130.003 30.5143 134.19 28.9681C138.377 27.4218 143.108 32.5085 142.489 40.417" fill="white"/>
<path d="M129.866 55.801C130.055 55.801 130.24 55.7346 130.388 55.5968C130.701 55.3111 130.716 54.8264 130.429 54.5151C130.388 54.4743 128.432 52.2907 128.79 49.6171C129.052 47.6885 130.439 45.923 132.916 44.3667C132.932 44.3565 132.952 44.3462 132.967 44.3309C133.09 44.2391 135.988 42.0398 135.333 38.3407C135.235 37.7897 134.923 37.0805 134.524 36.1774C133.755 34.4376 132.706 32.0601 133.29 30.6875C133.484 30.2334 133.862 29.9017 134.457 29.6823C135.711 29.2179 137.078 29.473 138.306 30.3963C140.221 31.8401 142.126 35.2126 141.722 40.3557C141.686 40.7792 142.003 41.1465 142.428 41.1771C142.848 41.2026 143.221 40.8964 143.252 40.473C143.63 35.6564 142.09 31.3247 139.228 29.1718C137.569 27.9218 135.685 27.5954 133.919 28.2486C132.921 28.6161 132.235 29.2385 131.871 30.0907C131.026 32.0704 132.235 34.8 133.11 36.7949C133.438 37.5398 133.751 38.2388 133.812 38.6062C134.278 41.2542 132.302 42.9023 132.062 43.0912C129.19 44.9026 127.578 47.0354 127.26 49.4335C126.81 52.8419 129.19 55.4489 129.293 55.5561C129.447 55.7193 129.651 55.801 129.856 55.801L129.866 55.801Z" fill="black"/>
<path d="M140.493 40.519C140.739 40.4017 149.907 37.1611 156.424 32.2626C161.819 28.2008 166.847 31.818 166.325 35.8131C165.583 41.4562 154.029 42.6662 154.029 42.6662C154.029 42.6662 160.813 63.2635 147.012 67.239C132.647 71.3833 132.119 59.3265 132.119 59.3265" fill="white"/>
<path d="M141.534 68.867C143.249 68.8669 145.148 68.5657 147.222 67.9687C150.554 67.0092 153.032 65.0396 154.577 62.1261C158.048 55.5797 155.841 46.207 155.016 43.2988C157.879 42.8649 166.392 41.1449 167.083 35.9049C167.364 33.7772 166.284 31.6701 164.338 30.5375C161.896 29.1192 158.763 29.5327 155.958 31.6452C152.195 34.4772 146.703 37.3348 140.498 39.6924C140.304 39.769 140.186 39.8149 140.16 39.8252C139.776 40.0088 139.618 40.463 139.802 40.8456C139.981 41.2232 140.432 41.3813 140.81 41.2129C140.846 41.1976 140.928 41.167 141.046 41.121C147.383 38.7124 153.01 35.7833 156.884 32.8646C159.178 31.1399 161.676 30.7622 163.565 31.859C164.978 32.6753 165.762 34.1855 165.562 35.7009C165.02 39.8337 156.993 41.569 153.947 41.8906C153.717 41.9162 153.507 42.0437 153.384 42.2376C153.261 42.4315 153.225 42.6713 153.297 42.8907C153.333 43.003 156.983 54.3144 153.221 61.4068C151.88 63.9376 149.715 65.6521 146.797 66.4941C142.277 67.7955 138.754 67.5815 136.323 65.8468C133.122 63.5664 132.882 59.3213 132.882 59.2804C132.861 58.857 132.503 58.5305 132.078 58.5509C131.653 58.5714 131.325 58.9285 131.346 59.3469C131.356 59.551 131.607 64.3573 135.416 67.0816C137.07 68.2652 139.117 68.8621 141.534 68.8619L141.534 68.867Z" fill="black"/>
<path d="M155.293 49.2687C155.293 49.2687 155.309 49.2687 155.314 49.2687C155.739 49.2584 156.071 48.9064 156.061 48.4829C156.061 48.3094 155.923 44.1919 153.163 41.8298C151.648 40.5339 149.667 40.034 147.276 40.3403C144.409 40.7079 142.981 42.0754 142.29 43.1621C141.323 44.6827 141.102 46.7083 141.706 48.5808C141.835 48.9838 142.27 49.2032 142.674 49.0756C143.078 48.9481 143.299 48.5144 143.171 48.1112C142.812 46.9939 142.731 45.3255 143.585 43.9836C144.332 42.8049 145.643 42.0905 147.47 41.8608C149.416 41.6157 150.992 41.9932 152.165 42.9982C154.412 44.9216 154.526 48.4881 154.526 48.5238C154.536 48.9422 154.879 49.2687 155.293 49.2687Z" fill="black"/>
<path d="M155.422 54.3145C155.806 54.3145 156.139 54.0288 156.184 53.6359C156.205 53.4777 156.609 49.6969 154.188 47.2582C152.652 45.7123 150.379 45.0798 147.42 45.3861C144.568 45.6771 143.135 47.0191 142.439 48.0855C141.436 49.6264 141.21 51.698 141.845 53.6317C141.978 54.0347 142.409 54.2542 142.813 54.1215C143.218 53.9887 143.437 53.5602 143.305 53.1571C142.925 51.9989 142.838 50.2795 143.729 48.9171C144.481 47.7691 145.777 47.0904 147.583 46.9015C150.046 46.6462 151.905 47.1257 153.092 48.3195C154.997 50.2276 154.664 53.4217 154.664 53.4574C154.618 53.8758 154.92 54.2533 155.34 54.3043C155.37 54.3043 155.396 54.3043 155.427 54.3043L155.422 54.3145Z" fill="black"/>
<path d="M146.003 63.4382C147.687 63.4381 149.76 62.7849 151.122 60.4531C151.337 60.0856 151.214 59.6214 150.845 59.4071C150.477 59.1929 150.011 59.3154 149.796 59.6827C148.05 62.6625 145.071 61.8463 144.605 61.6984C142.849 60.6832 141.953 58.7189 142.316 56.6831C142.731 54.3411 144.676 52.6674 147.512 52.2029C150.435 51.7231 152.57 52.1057 153.681 53.2995C155.022 54.7434 154.71 57.0853 154.403 58.3609C154.306 58.7742 154.556 59.1875 154.971 59.2844C155.381 59.3813 155.796 59.1313 155.898 58.718C156.553 56.0086 156.164 53.7178 154.807 52.2586C153.307 50.6464 150.768 50.1211 147.261 50.6927C143.13 51.3665 141.216 54.0912 140.801 56.4178C140.325 59.0812 141.574 61.7547 143.909 63.0659C143.944 63.0863 143.986 63.1067 144.027 63.1169C144.529 63.2954 145.22 63.4383 146.003 63.4382Z" fill="black"/>
<path d="M62.4342 58.1629C58.4985 58.1632 55.3077 53.3937 55.3073 47.5099C55.307 41.6262 58.4971 36.8562 62.4328 36.856C66.3684 36.8557 69.5592 41.6253 69.5596 47.509C69.56 53.3928 66.3698 58.1627 62.4342 58.1629Z" fill="white"/>
<path d="M62.4346 58.9284C66.786 58.9281 70.3283 53.8052 70.3279 47.5091C70.3275 41.2129 66.7845 36.0905 62.433 36.0908C58.0817 36.0911 54.5394 41.2139 54.5398 47.5101C54.5402 53.8062 58.0832 58.9287 62.4346 58.9284ZM62.4331 37.6214C65.9399 37.6212 68.7917 42.06 68.7921 47.5092C68.7924 52.9584 65.9412 57.3975 62.4345 57.3978C58.9277 57.398 56.076 52.9592 56.0756 47.51C56.0752 42.0608 58.9264 37.6217 62.4331 37.6214Z" fill="black"/>
<path d="M61.0261 45.1825L63.1914 42.371C62.3824 40.4986 61.1332 39.2945 59.7408 39.2946C57.2937 39.2948 55.3127 42.9736 55.313 47.5095C55.3133 52.0454 57.2948 55.724 59.7419 55.7238C62.1889 55.7237 64.1698 52.0448 64.1695 47.5089C64.1695 46.6977 64.108 45.9171 63.9902 45.1823L61.0312 45.1825L61.0261 45.1825Z" fill="black"/>
<path d="M59.7361 56.4896C62.6491 56.4894 64.932 52.5452 64.9317 47.5093C64.9316 46.6827 64.865 45.8562 64.7421 45.0602C64.6807 44.6877 64.3633 44.4123 63.9844 44.4123L62.5817 44.4124L63.8 42.8306C63.9689 42.6112 64.0047 42.3152 63.8972 42.0601C62.9244 39.8101 61.409 38.5244 59.7401 38.5246C56.8272 38.5248 54.5442 42.4689 54.5445 47.5048C54.5449 52.5407 56.8284 56.4846 59.7413 56.4844L59.7361 56.4896ZM63.3088 45.9481C63.3651 46.4634 63.3959 46.9839 63.3959 47.5094C63.3962 51.9687 61.5022 54.9588 59.736 54.9589C57.9699 54.959 56.0756 51.9641 56.0753 47.5099C56.075 43.0556 57.9689 40.0605 59.7351 40.0603C60.6617 40.0603 61.5985 40.8766 62.2949 42.2694L60.4112 44.7136C60.232 44.9431 60.2013 45.2544 60.3344 45.5197C60.4624 45.7799 60.7286 45.9483 61.0204 45.9483L63.3037 45.9481L63.3088 45.9481Z" fill="black"/>
<path d="M59.054 34.8205C59.054 34.8205 61.424 32.5703 64.0042 32.7844C67.4239 33.0699 65.4784 29.9015 62.4734 30.9579C59.4684 32.0142 59.054 34.8205 59.054 34.8205Z" fill="black"/>
<path d="M59.0538 35.5855C59.2483 35.5854 59.4377 35.514 59.5811 35.3762C59.6169 35.3405 61.7669 33.3607 63.9375 33.5493C65.5604 33.6819 66.1951 33.1359 66.4408 32.6512C66.7121 32.1155 66.5943 31.4828 66.1284 30.9573C65.4271 30.1614 63.9424 29.6308 62.2172 30.2381C58.8129 31.4374 58.3115 34.5753 58.2961 34.713C58.2501 35.0345 58.4139 35.3559 58.7006 35.5039C58.8132 35.56 58.9309 35.5906 59.0538 35.5906L59.0538 35.5855ZM63.6508 32.0034C62.7856 32.0034 61.9613 32.2229 61.2344 32.524C61.6184 32.1923 62.1098 31.8913 62.7241 31.6769C63.7122 31.3299 64.3981 31.5901 64.6439 31.7227C64.8128 31.8094 64.9152 31.9013 64.9766 31.9727C64.8385 32.0186 64.562 32.0646 64.0654 32.0238C63.9272 32.0136 63.7889 32.0085 63.6508 32.0085L63.6508 32.0034Z" fill="black"/>
<path d="M81.4984 57.8045C77.5633 57.8048 74.3722 53.0353 74.3718 47.1515C74.3714 41.2677 77.5619 36.4978 81.497 36.4976C85.4328 36.4973 88.6239 41.2668 88.6243 47.1506C88.6247 53.0343 85.4342 57.8043 81.4984 57.8045Z" fill="white"/>
<path d="M81.4984 58.5749C85.85 58.5746 89.3922 53.4518 89.3918 47.1556C89.3914 40.8594 85.8485 35.737 81.4969 35.7373C77.1461 35.7376 73.6039 40.8605 73.6043 47.1566C73.6047 53.4528 77.1476 58.5752 81.4984 58.5749ZM81.497 37.2629C85.0038 37.2626 87.8557 41.7014 87.8561 47.1506C87.8565 52.5997 85.0051 57.0389 81.4983 57.0391C77.9923 57.0393 75.1403 52.6006 75.14 47.1514C75.1396 41.7022 77.991 37.2631 81.497 37.2629Z" fill="black"/>
<path d="M80.0895 44.8242L82.2549 42.0126C81.4458 40.1402 80.1972 38.9361 78.8047 38.9362C76.3576 38.9364 74.3762 42.6152 74.3765 47.1511C74.3768 51.687 76.3587 55.3656 78.8058 55.3654C81.2523 55.3653 83.2337 51.6864 83.2334 47.1505C83.2333 46.3393 83.1715 45.5587 83.0541 44.824L80.0951 44.8242L80.0895 44.8242Z" fill="black"/>
<path d="M78.8002 56.136C81.7137 56.1358 83.9963 52.1916 83.9959 47.1558C83.9959 46.3292 83.9347 45.5078 83.8062 44.7067C83.7451 44.3343 83.4276 44.0587 83.0485 44.0588L81.6462 44.0589L82.8644 42.4771C83.0336 42.2577 83.0694 41.9617 82.9619 41.7066C81.9885 39.4566 80.4731 38.1709 78.8047 38.171C75.8912 38.1712 73.6087 42.1154 73.609 47.1514C73.6093 52.1873 75.8924 56.1312 78.8059 56.131L78.8002 56.136ZM82.373 45.5895C82.4292 46.1048 82.4602 46.6252 82.4602 47.1508C82.4605 51.6101 80.5669 54.6001 78.8001 54.6003C77.0341 54.6004 75.1401 51.6055 75.1398 47.1513C75.1395 42.697 77.0331 39.7019 78.7992 39.7018C79.7261 39.7017 80.6628 40.518 81.3595 41.9159L79.4757 44.36C79.2966 44.5897 79.2658 44.9009 79.3936 45.1662C79.5214 45.4264 79.7875 45.5948 80.0846 45.5947L82.3681 45.5946L82.373 45.5895Z" fill="black"/>
<path d="M76.0091 34.819C76.0091 34.819 78.3788 32.5688 80.9594 32.7829C84.3792 33.0684 82.4332 29.9 79.4285 30.9564C76.4232 32.0128 76.0091 34.819 76.0091 34.819Z" fill="black"/>
<path d="M76.009 35.5845C76.2035 35.5845 76.3931 35.513 76.5363 35.3753C76.5721 35.3395 78.7172 33.3597 80.8926 33.5483C82.5154 33.681 83.1502 33.135 83.3959 32.6502C83.6676 32.1145 83.5496 31.4818 83.0833 30.9563C82.3825 30.1604 80.8973 29.6299 79.1727 30.2372C75.7678 31.4364 75.2716 34.5743 75.2512 34.7121C75.2049 35.0335 75.3693 35.3549 75.6558 35.5029C75.7681 35.559 75.8861 35.5896 76.009 35.5896L76.009 35.5845ZM80.611 32.0024C79.7458 32.0025 78.9215 32.222 78.1947 32.523C78.5788 32.1914 79.0703 31.8903 79.6847 31.6759C80.6727 31.3289 81.3588 31.5891 81.6045 31.7217C81.7731 31.8085 81.8756 31.9003 81.9367 31.9717C81.7991 32.0176 81.5224 32.0636 81.026 32.0228C80.8876 32.0126 80.7493 32.0075 80.611 32.0075L80.611 32.0024Z" fill="black"/>
<path d="M72.5045 62.3665C70.4724 62.3666 68.7317 62.1321 67.375 61.8515C68.0305 64.4944 69.9097 70.3722 73.6826 70.1831C77.4148 69.994 77.7726 64.3407 77.7366 61.7386C76.3392 62.0805 74.5578 62.3715 72.5045 62.3716L72.5045 62.3665Z" fill="white"/>
<path d="M73.4983 70.9483C73.5755 70.9483 73.6471 70.9483 73.7237 70.9434C76.8414 70.7845 78.5869 67.4273 78.5099 61.7231C78.5099 61.4884 78.3969 61.269 78.2129 61.1261C78.0282 60.9833 77.788 60.9323 77.5577 60.9884C74.2764 61.7948 70.7436 61.7593 67.5339 61.0962C67.2779 61.0452 67.0065 61.1269 66.8274 61.3157C66.6431 61.5045 66.5715 61.7749 66.6329 62.03C67.4625 65.3872 69.4543 70.9486 73.4983 70.9483ZM76.9638 62.6875C76.8923 65.208 76.3603 69.2746 73.647 69.4125C73.6007 69.4125 73.5599 69.4125 73.5136 69.4125C70.8108 69.4127 69.1672 65.234 68.4401 62.8105C71.21 63.2389 74.1585 63.2439 76.9638 62.6824L76.9638 62.6875Z" fill="black"/>
<path d="M72.5041 63.1317C77.7207 63.1313 81.2372 61.3505 81.3861 61.2739C81.7646 61.08 81.9078 60.6156 81.7132 60.2432C81.5187 59.8708 81.0531 59.7228 80.6796 59.9167C80.6332 59.9422 77.3162 61.6007 72.504 61.601C67.6918 61.6013 64.5075 60.2188 64.4768 60.2035C64.0877 60.03 63.6372 60.2036 63.4632 60.5862C63.2891 60.9689 63.4632 61.423 63.8471 61.5965C63.9854 61.6577 67.308 63.132 72.5041 63.1317Z" fill="black"/>
<path d="M80.8564 95.3825C80.8564 95.3825 76.4993 95.9031 74.0221 97.6587C71.0737 99.7452 69.7428 106.705 74.6985 111.848C74.6985 111.848 74.654 128.44 87.7851 128.429C98.6734 128.418 98.9899 114.443 92.7134 111.908L91.0748 105.066L87.7829 94.9993C87.7829 94.9993 83.8871 94.7601 80.8613 95.3824L80.8564 95.3825Z" fill="white"/>
<path d="M87.7696 129.194L87.7794 129.194C93.7593 129.194 96.6669 125.209 97.3934 121.49C98.2379 117.158 96.5172 112.892 93.3691 111.362L91.8225 104.887C91.8225 104.887 91.8119 104.847 91.807 104.826L88.5144 94.7598C88.4175 94.4585 88.1457 94.2542 87.834 94.2339C87.6696 94.2241 83.8307 93.9996 80.7383 94.6276C80.2931 94.6838 76.1052 95.25 73.5816 97.0359C72.0052 98.1532 70.9149 100.337 70.6742 102.878C70.357 106.195 71.5447 109.562 73.9358 112.159C73.9823 113.787 74.4329 121.226 78.9638 125.746C81.2573 128.037 84.222 129.195 87.7745 129.194L87.7696 129.194ZM90.3324 105.27L91.9613 112.081C92.0175 112.321 92.1916 112.52 92.4219 112.612C95.0946 113.693 96.6151 117.459 95.8886 121.194C95.1003 125.24 92.0697 127.658 87.7793 127.659L87.7695 127.659C84.6412 127.659 82.0408 126.649 80.0493 124.664C75.5029 120.129 75.4617 111.929 75.4617 111.848C75.4617 111.649 75.3844 111.46 75.2461 111.317C73.0242 109.011 71.9131 105.99 72.1945 103.021C72.3888 100.949 73.2594 99.1334 74.4622 98.2808C76.7506 96.6635 80.902 96.1478 80.9483 96.1429C80.9687 96.1429 80.989 96.1373 81.0101 96.1324C83.2677 95.6681 86.0729 95.6981 87.2147 95.7394L90.3324 105.27Z" fill="black"/>
<path d="M77.4941 112.735C77.4945 118.491 81.5446 125.884 88.7218 125.694L77.4941 112.735Z" fill="white"/>
<path d="M88.4554 126.465C88.5523 126.465 88.6443 126.465 88.7419 126.465C89.1667 126.455 89.4995 126.102 89.489 125.679C89.4791 125.255 89.1357 124.913 88.701 124.934C86.2637 125.006 84.0265 124.098 82.209 122.338C79.8081 120.011 78.2616 116.246 78.2613 112.746C78.2613 112.322 77.9186 111.98 77.4938 111.98C77.069 111.98 76.7256 112.322 76.7256 112.746C76.7259 116.639 78.4564 120.832 81.1397 123.434C83.1874 125.424 85.7161 126.47 88.4554 126.47L88.4554 126.465Z" fill="black"/>
<path d="M74.7287 100.01C74.7287 100.01 71.8368 106.582 77.2587 109.914L74.7287 100.01Z" fill="white"/>
<path d="M77.2589 110.673C77.5145 110.673 77.7659 110.546 77.9141 110.312C78.1394 109.949 78.0264 109.48 77.6633 109.261C72.8868 106.327 75.3279 100.561 75.4353 100.316C75.6045 99.9285 75.4255 99.4798 75.0364 99.3113C74.6474 99.1428 74.1966 99.3163 74.0281 99.7039C72.9377 102.189 72.1243 107.654 76.8594 110.567C76.9872 110.643 77.1255 110.679 77.2639 110.679L77.2589 110.673Z" fill="black"/>
<path d="M91.1062 107.908C97.1674 105.423 95.2936 100.004 92.467 96.3459C89.2879 92.2291 83.0987 92.8109 81.2509 98.1274C79.3005 103.74 85.5007 110.204 91.1111 107.908L91.1062 107.908Z" fill="white"/>
<path d="M88.7145 109.143C89.6259 109.143 90.5324 108.969 91.3975 108.617C93.7316 107.657 95.1752 106.213 95.687 104.315C96.3265 101.938 95.3741 98.8607 93.0707 95.8765C91.3551 93.657 88.6776 92.5399 86.0724 92.9635C83.482 93.3822 81.4549 95.173 80.5176 97.8772C79.4842 100.857 80.4724 104.347 83.0426 106.765C84.6957 108.321 86.7181 109.143 88.7145 109.143ZM90.8139 107.198C88.602 108.101 86.0881 107.525 84.0973 105.648C81.9674 103.643 81.1323 100.786 81.9719 98.3771C82.7189 96.2241 84.3058 94.8006 86.3232 94.474C88.3708 94.1417 90.4852 95.0397 91.8574 96.8105C92.8097 98.04 94.9396 101.198 94.2074 103.917C93.829 105.331 92.6873 106.433 90.8139 107.198Z" fill="black"/>
<path d="M17.3952 66.7729C17.3952 66.7729 9.4603 67.6459 9.37895 75.6361C9.29753 83.6264 20.8318 89.6611 25.9049 86.477C29.821 84.0225 27.7064 78.8138 27.7064 78.8138" fill="white"/>
<path d="M22.5001 88.1001C23.954 88.1 25.2696 87.7783 26.3088 87.1252C29.8359 84.9158 29.2264 80.5328 28.4123 78.528C28.2536 78.1348 27.8082 77.9467 27.414 78.1047C27.0198 78.2627 26.8304 78.7114 26.9891 79.0997C27.066 79.2879 28.8068 83.7524 25.4947 85.8297C23.442 87.1156 19.9301 86.7331 16.5563 84.8507C13.4283 83.1109 10.1056 79.7742 10.1463 75.6411C10.2175 68.442 17.1849 67.5639 17.4818 67.5333C17.9016 67.4874 18.2036 67.1047 18.1575 66.6863C18.1114 66.2679 17.7274 65.9669 17.3127 66.0128C17.2257 66.0231 8.69697 67.0594 8.61053 75.6257C8.55959 80.4274 12.297 84.2281 15.8039 86.1871C18.0718 87.4523 20.4319 88.1002 22.5001 88.1001Z" fill="black"/>
<path d="M13.7958 70.6616C13.7958 70.6616 13.7954 64.1407 20.9928 58.2675C20.9928 58.2675 22.769 54.6857 21.4582 51.9101C20.1475 49.1396 18.6982 40.818 25.5736 43.0983C31.6146 45.103 30.3406 56.4097 30.3406 56.4097C30.3406 56.4097 39.8062 56.1438 43.7325 52.7147C47.6588 49.2858 52.0458 43.9486 55.6756 46.8821C58.9982 49.5657 59.2753 59.9079 43.5693 61.6896L37.842 81.2007L27.368 82.9161" fill="white"/>
<path d="M27.374 83.6866C27.4149 83.6866 27.4559 83.6866 27.502 83.6761L37.976 81.9613C38.2679 81.9156 38.5033 81.7064 38.5904 81.4206L44.1743 62.3938C54.3002 61.1022 57.1514 56.4029 57.9447 53.6833C58.7739 50.8465 58.0467 47.8056 56.1678 46.2904C52.6148 43.418 48.663 47.1072 45.182 50.3626C44.5063 50.9902 43.8715 51.5873 43.2368 52.1435C40.2319 54.7662 33.5563 55.4401 31.1861 55.6036C31.3548 52.7718 31.3952 44.2256 25.8252 42.3738C23.542 41.6137 21.827 41.8485 20.7315 43.0782C18.7505 45.2979 19.7798 50.1398 20.7731 52.2367C21.7767 54.3592 20.666 57.1349 20.3793 57.788C13.1204 63.7888 13.039 70.3809 13.039 70.6618C13.039 71.0852 13.382 71.4264 13.8069 71.4264C14.2319 71.4264 14.5748 71.0851 14.5748 70.6617C14.5748 70.5999 14.6921 64.406 21.4902 58.8594C21.5772 58.788 21.6438 58.7013 21.6899 58.6043C21.7718 58.4462 23.6145 54.6551 22.1604 51.5836C21.3207 49.803 20.4809 45.66 21.8784 44.0935C22.5234 43.369 23.6854 43.277 25.3339 43.828C30.7144 45.6134 29.594 56.2211 29.5838 56.3282C29.5582 56.5476 29.6299 56.767 29.7834 56.9302C29.9319 57.0935 30.152 57.1853 30.3722 57.1751C30.7715 57.1649 40.1603 56.8581 44.2505 53.2914C44.9057 52.7199 45.5814 52.0872 46.2367 51.48C50.0145 47.9489 52.8709 45.5915 55.2054 47.4792C56.3932 48.4384 57.2125 50.7343 56.4755 53.2549C55.7743 55.6529 53.1535 59.837 43.4984 60.9346C43.1913 60.9703 42.9354 61.1847 42.8483 61.4806L37.2593 80.5275L27.2664 82.1607C26.8466 82.2275 26.5651 82.6256 26.6317 83.0385C26.6931 83.4163 27.0208 83.6817 27.3894 83.6817L27.374 83.6866Z" fill="black"/>
<path d="M38.0098 60.5472C38.0098 60.5472 44.3935 59.2406 44.8803 65.6031C45.3722 71.9657 41.4457 73.1035 41.4457 73.1035" fill="white"/>
<path d="M41.4465 73.8688C41.5182 73.8688 41.5898 73.8583 41.6615 73.8379C41.8458 73.7873 46.1818 72.4451 45.6489 65.5416C45.4901 63.4548 44.7273 61.8885 43.3808 60.8783C41.0923 59.159 37.9849 59.7664 37.8569 59.797C37.4423 59.8838 37.1761 60.2869 37.258 60.7002C37.34 61.1134 37.7495 61.3787 38.1642 61.297C38.1642 61.297 40.7341 60.802 42.4645 62.108C43.4372 62.8427 43.9953 64.0366 44.1183 65.6591C44.5487 71.2662 41.3645 72.3282 41.2263 72.3689C40.8218 72.496 40.5967 72.9195 40.7144 73.3225C40.8168 73.6547 41.1189 73.8688 41.4465 73.8688Z" fill="black"/>
<path d="M37.0274 65.5628C37.0274 65.5628 43.411 64.2562 43.8978 70.619C44.3897 76.9809 40.4632 78.1194 40.4632 78.1194" fill="white"/>
<path d="M40.4631 78.8847C40.5347 78.8847 40.6064 78.8742 40.6781 78.8538C40.8624 78.8025 45.1984 77.4603 44.6655 70.557C44.5067 68.4704 43.7438 66.9041 42.3974 65.894C40.1089 64.1746 37.0015 64.782 36.8735 64.8127C36.4589 64.8994 36.1927 65.3025 36.2746 65.7158C36.3617 66.129 36.7713 66.3943 37.1808 66.3127C37.2064 66.3075 39.7558 65.8176 41.4811 67.1236C42.4538 67.8583 43.0119 69.0522 43.1349 70.6744C43.5653 76.2821 40.376 77.3434 40.2429 77.3841C39.8384 77.5119 39.6133 77.9354 39.731 78.3384C39.8334 78.6699 40.1355 78.8847 40.4631 78.8847Z" fill="black"/>
<path d="M32.3643 80.3649C32.3643 80.3649 31.8578 85.2986 38.0112 84.0328C38.0112 84.0328 44.3693 82.8386 43.3194 75.1847C42.4538 68.8635 35.6554 70.2109 35.6554 70.2109" fill="white"/>
<path d="M36.1588 85.0017C36.7732 85.0016 37.4438 84.925 38.1656 84.7775C38.2219 84.767 45.2148 83.3586 44.0778 75.0777C43.8064 73.0827 42.9616 71.5674 41.569 70.5823C39.04 68.7868 35.6459 69.4299 35.5026 69.4606C35.0879 69.5423 34.8166 69.9453 34.8985 70.3588C34.9804 70.7717 35.3849 71.042 35.7996 70.9605C35.8252 70.9556 38.7022 70.4196 40.6835 71.833C41.7125 72.5675 42.3423 73.731 42.5574 75.287C43.4895 82.0983 38.099 83.2362 37.8686 83.2769C36.0564 83.6499 34.7458 83.4864 33.9727 82.7976C33.0051 81.9361 33.133 80.4509 33.133 80.4355C33.1739 80.017 32.8617 79.6448 32.4419 79.6041C32.0221 79.5634 31.6484 79.8696 31.6023 80.2881C31.5921 80.3794 31.3926 82.5429 32.9336 83.931C33.7272 84.6451 34.8124 85.0074 36.1588 85.0073L36.1588 85.0017Z" fill="black"/>
<path d="M20.258 80.5235C20.258 80.5235 26.9649 88.9263 37.0288 78.1195L20.258 80.5235Z" fill="white"/>
<path d="M26.9642 84.4008C30.4557 84.4006 34.0288 82.4665 37.5916 78.64C37.8783 78.3289 37.8629 77.8437 37.5506 77.5579C37.2383 77.2728 36.7519 77.2876 36.4653 77.5994C33.1072 81.2012 29.8207 82.9667 26.6877 82.8651C23.0734 82.7376 20.8822 80.0693 20.8566 80.0441C20.5904 79.7176 20.1091 79.6614 19.7764 79.9269C19.4436 80.1923 19.3925 80.6719 19.6536 80.9984C19.7611 81.1311 22.28 84.2277 26.6008 84.391C26.7185 84.391 26.8414 84.3959 26.9591 84.3959L26.9642 84.4008Z" fill="black"/>
<path d="M77.6142 76.8769C77.768 76.8867 81.3668 77.1674 85.3343 78.3152C91.4927 80.1054 95.4554 83.0495 97.1094 87.08C99.0906 91.9117 97.4885 97.325 92.3446 103.178C91.3925 104.26 90.0562 104.816 88.715 104.816C87.5887 104.816 86.4518 104.424 85.541 103.622C83.5389 101.873 83.3393 98.8364 85.0898 96.8413C87.9054 93.637 88.514 91.5402 88.1811 90.7236C87.3672 88.7238 81.5465 86.8261 76.8825 86.4592" fill="#12B4FF"/>
<path d="M88.72 105.576C90.333 105.576 91.863 104.881 92.9232 103.678C98.2722 97.5901 99.9206 91.9064 97.8214 86.7889C96.0747 82.5337 91.9435 79.4366 85.5491 77.5804C81.5002 76.4066 77.8291 76.1217 77.676 76.1112C77.2512 76.0859 76.8825 76.397 76.8517 76.8205C76.8208 77.2439 77.1382 77.6111 77.5581 77.642C77.7063 77.6518 81.2236 77.9219 85.1195 79.055C91.0427 80.7736 94.8417 83.5744 96.3981 87.376C98.262 91.9163 96.7056 97.065 91.7709 102.678C91.0034 103.555 89.887 104.055 88.7199 104.055C87.7368 104.055 86.7902 103.699 86.048 103.055C85.2334 102.346 84.7474 101.362 84.6757 100.28C84.604 99.2033 84.9571 98.1626 85.6733 97.3515C88.2994 94.3663 89.4719 91.846 88.8981 90.4374C87.8537 87.8766 81.2852 86.0401 76.9491 85.6984C76.5299 85.6675 76.1557 85.9793 76.1255 86.4027C76.0897 86.8262 76.4071 87.1934 76.832 87.2243C81.4855 87.5856 86.8609 89.4987 87.4755 91.0091C87.6187 91.356 87.378 93.0806 84.5167 96.3362C82.484 98.6473 82.7202 102.173 85.0341 104.199C86.053 105.091 87.3634 105.581 88.7151 105.581L88.72 105.576Z" fill="black"/>
</g>
</g>
<defs>
<clipPath id="clip0_3528_730">
<rect width="169.23" height="131.311" fill="white" transform="translate(0 0.0112305)"/>
</clipPath>
</defs>
</svg>
